<svg width="480" height="480" viewBox="0 0 480 480" fill="none" xmlns="http://www.w3.org/2000/svg">
<rect width="480" height="480" fill="white"/>
<g clip-path="url(#clip0_119_20)">
<path d="M246.218 233.056L130.039 354.569C131.344 359.184 133.688 363.441 136.893 367.014C140.099 370.586 144.08 373.38 148.532 375.181C152.985 376.982 157.791 377.743 162.583 377.406C167.375 377.069 172.027 375.642 176.182 373.235L306.905 298.911L246.218 233.056Z" fill="#EA4335"/>
<path d="M363.695 212.401L307.166 180.077L243.536 235.82L307.425 298.737L363.523 266.76C368.493 264.162 372.656 260.256 375.56 255.464C378.465 250.673 380 245.18 380 239.58C380 233.98 378.465 228.486 375.56 223.695C372.656 218.904 368.493 214.998 363.523 212.4L363.695 212.401Z" fill="#FBBC04"/>
<path d="M130.039 123.989C129.337 126.581 128.988 129.255 129 131.94V346.617C129.007 349.301 129.356 351.973 130.039 354.569L250.2 236.167L130.039 123.989Z" fill="#4285F4"/>
<path d="M247.083 239.279L307.165 180.078L176.615 105.408C171.703 102.536 166.117 101.015 160.425 101C146.299 100.973 133.881 110.332 130.039 123.903L247.083 239.279Z" fill="#34A853"/>
</g>
<defs>
<clipPath id="clip0_119_20">
<rect width="251" height="277" fill="white" transform="translate(129 101)"/>
</clipPath>
</defs>
</svg>
