<svg width="48" height="30" viewBox="0 0 48 30" fill="none" xmlns="http://www.w3.org/2000/svg">
<path d="M28.8806 12.8513C29.0225 13.6084 29.1238 14.3656 29.1238 15.3478C29.1238 23.9223 23.4287 30 14.8558 30C6.64765 30 0 23.2879 0 15C0 6.71211 6.64765 0 14.8558 0C18.8687 0 22.2127 1.47336 24.8069 3.92906L20.7737 7.83766C19.6793 6.77352 17.754 5.52523 14.8558 5.52523C9.78902 5.52523 5.65448 9.76125 5.65448 15C5.65448 20.2387 9.78902 24.4748 14.8558 24.4748C20.7332 24.4748 22.9423 20.1978 23.2868 18.0081H14.8558V12.8512H28.8806V12.8513ZM43.2262 13.3541V9H38.8932V13.3541H34.5809V17.7292H38.8932V22.0834H43.2262V17.7292H47.5385V13.3541H43.2262Z" fill="#FAFAFA"/>
</svg>
