<svg width="75" height="75" viewBox="0 0 75 75" fill="none" xmlns="http://www.w3.org/2000/svg">
<path d="M61.3455 61.3466C73.9636 48.7305 75.3128 35.127 71.8687 22.0985C71.3343 20.0808 71.6615 17.9432 72.5453 16.0536C74.8089 11.1974 74.7967 6.53415 71.7041 3.44161C68.6116 0.349065 63.9484 0.336874 59.0922 2.60244C57.2025 3.48428 55.0649 3.81141 53.0473 3.27703C40.0188 -0.167037 26.4173 1.18214 13.7992 13.8002C1.18113 26.4183 -0.168051 40.0218 3.27804 53.0524C3.81243 55.068 3.4853 57.2055 2.60142 59.0972C0.33789 63.9514 0.34805 68.6146 3.44263 71.7072C6.5372 74.7997 11.1984 74.8119 16.0526 72.5484C17.9443 71.6645 20.0818 71.3374 22.0975 71.8718C35.128 75.3179 48.7315 73.9666 61.3496 61.3506" fill="#E3FF00"/>
<path d="M61.3455 61.3466C73.9636 48.7305 75.3128 35.127 71.8687 22.0985C71.3343 20.0808 71.6615 17.9432 72.5453 16.0536C74.8089 11.1974 74.7967 6.53415 71.7041 3.44161C68.6116 0.349065 63.9484 0.336874 59.0922 2.60244C57.2025 3.48428 55.0649 3.81141 53.0473 3.27703C40.0188 -0.167037 26.4173 1.18214 13.7992 13.8002C1.18113 26.4183 -0.168051 40.0218 3.27804 53.0524C3.81243 55.068 3.4853 57.2055 2.60142 59.0972C0.33789 63.9514 0.34805 68.6146 3.44263 71.7072C6.5372 74.7997 11.1984 74.8119 16.0526 72.5484C17.9443 71.6645 20.0818 71.3374 22.0975 71.8718C35.128 75.3179 48.7315 73.9666 61.3496 61.3506" stroke="#E3FF00" stroke-linecap="round" stroke-linejoin="round"/>
<ellipse cx="59.9246" cy="27.4146" rx="4.06379" ry="4.06379" fill="#0C0B0E"/>
<ellipse cx="47.7335" cy="35.5421" rx="4.06379" ry="4.06379" fill="#0C0B0E"/>
<ellipse cx="59.9246" cy="41.6378" rx="4.06379" ry="4.06379" fill="#0C0B0E"/>
</svg>
