<svg width="201" height="37" viewBox="0 0 201 37" fill="none" xmlns="http://www.w3.org/2000/svg">
<path d="M27.4 30.0641C32.9202 24.694 33.5104 18.9036 32.0037 13.3579C31.7699 12.4991 31.913 11.5892 32.2997 10.7849C33.29 8.71777 33.2846 6.73285 31.9317 5.41649C30.5788 4.10012 28.5387 4.09493 26.4142 5.05929C25.5875 5.43465 24.6524 5.5739 23.7697 5.34643C18.07 3.88044 12.1196 4.45473 6.5994 9.8257C1.07924 15.1967 0.489 20.9871 1.9966 26.5336C2.23038 27.3916 2.08727 28.3015 1.70059 29.1067C0.71034 31.1729 0.714784 33.1578 2.0686 34.4742C3.42242 35.7906 5.46159 35.7958 7.58521 34.8323C8.41279 34.456 9.34793 34.3168 10.2297 34.5443C15.9303 36.0111 21.8816 35.436 27.4018 30.0659" fill="#E3FF00"/>
<path d="M27.4 30.0641C32.9202 24.694 33.5104 18.9036 32.0037 13.3579C31.7699 12.4991 31.913 11.5892 32.2997 10.7849C33.29 8.71777 33.2846 6.73285 31.9317 5.41649C30.5788 4.10012 28.5387 4.09493 26.4142 5.05929C25.5875 5.43465 24.6524 5.5739 23.7697 5.34643C18.07 3.88044 12.1196 4.45473 6.5994 9.8257C1.07924 15.1967 0.489 20.9871 1.9966 26.5336C2.23038 27.3916 2.08727 28.3015 1.70059 29.1067C0.71034 31.1729 0.714784 33.1578 2.0686 34.4742C3.42242 35.7906 5.46159 35.7958 7.58521 34.8323C8.41279 34.456 9.34793 34.3168 10.2297 34.5443C15.9303 36.0111 21.8816 35.436 27.4018 30.0659" stroke="#E3FF00" stroke-linecap="round" stroke-linejoin="round"/>
<ellipse cx="26.7786" cy="15.6208" rx="1.77783" ry="1.72978" fill="#0C0B0E"/>
<ellipse cx="21.4451" cy="19.0804" rx="1.77783" ry="1.72978" fill="#0C0B0E"/>
<ellipse cx="26.7786" cy="21.675" rx="1.77783" ry="1.72978" fill="#0C0B0E"/>
<path d="M43.264 31.76C42.816 31.76 42.592 31.5253 42.592 31.056V7.696C42.592 7.46133 42.6347 7.312 42.72 7.248C42.8053 7.16267 42.9653 7.12 43.2 7.12H46.4C46.6347 7.12 46.784 7.16267 46.848 7.248C46.912 7.312 46.944 7.46133 46.944 7.696V27.728H54.656C54.8907 27.728 55.0507 27.7813 55.136 27.888C55.2213 27.9733 55.264 28.1333 55.264 28.368V31.12C55.264 31.3547 55.2213 31.5147 55.136 31.6C55.0507 31.7067 54.8907 31.76 54.656 31.76H43.264ZM59.532 11.088C58.828 11.088 58.2413 10.8427 57.772 10.352C57.3027 9.86133 57.068 9.264 57.068 8.56C57.068 7.856 57.292 7.25867 57.74 6.768C58.2093 6.256 58.8067 6 59.532 6C60.2573 6 60.8547 6.256 61.324 6.768C61.7933 7.25867 62.028 7.856 62.028 8.56C62.028 9.264 61.7933 9.86133 61.324 10.352C60.8547 10.8427 60.2573 11.088 59.532 11.088ZM57.9 31.76C57.708 31.76 57.5693 31.7173 57.484 31.632C57.42 31.5467 57.388 31.376 57.388 31.12V14.448C57.388 14.192 57.42 14.0213 57.484 13.936C57.548 13.8507 57.6867 13.808 57.9 13.808H61.068C61.2813 13.808 61.42 13.8507 61.484 13.936C61.5693 14.0213 61.612 14.192 61.612 14.448V31.12C61.612 31.376 61.5693 31.5467 61.484 31.632C61.42 31.7173 61.2813 31.76 61.068 31.76H57.9ZM86.194 31.76C85.9593 31.76 85.7887 31.7067 85.682 31.6C85.5753 31.5147 85.522 31.344 85.522 31.088V20.336C85.522 19.4827 85.2873 18.8 84.818 18.288C84.3487 17.7547 83.762 17.488 83.058 17.488C82.5247 17.488 82.0447 17.616 81.618 17.872C81.1913 18.1067 80.8287 18.4373 80.53 18.864C80.2313 19.2907 79.9967 19.7813 79.826 20.336C79.6767 20.8907 79.602 21.4667 79.602 22.064V31.12C79.602 31.5467 79.3993 31.76 78.994 31.76H75.986C75.7513 31.76 75.5807 31.7067 75.474 31.6C75.3673 31.5147 75.314 31.344 75.314 31.088V20.336C75.314 19.3333 75.1113 18.608 74.706 18.16C74.322 17.712 73.7567 17.488 73.01 17.488C71.986 17.488 71.1753 17.84 70.578 18.544C69.9807 19.2267 69.682 20.048 69.682 21.008V31.12C69.682 31.376 69.6393 31.5467 69.554 31.632C69.4687 31.7173 69.3087 31.76 69.074 31.76H66.098C65.842 31.76 65.6713 31.7067 65.586 31.6C65.5007 31.4933 65.458 31.3227 65.458 31.088V18.576C65.458 17.7653 65.458 16.9653 65.458 16.176C65.458 15.3653 65.4367 14.7467 65.394 14.32C65.3513 14.0853 65.3727 13.9253 65.458 13.84C65.5647 13.7333 65.778 13.68 66.098 13.68H69.074C69.3087 13.68 69.458 13.7013 69.522 13.744C69.586 13.7867 69.618 13.904 69.618 14.096V15.408C70.0873 14.9173 70.6527 14.4907 71.314 14.128C71.9967 13.744 72.6793 13.552 73.362 13.552C74.386 13.552 75.346 13.8187 76.242 14.352C77.1593 14.8853 77.8633 15.6 78.354 16.496C78.6313 16.0907 78.9513 15.7067 79.314 15.344C79.6767 14.9813 80.0607 14.6613 80.466 14.384C80.8927 14.1067 81.3407 13.8827 81.81 13.712C82.3007 13.5413 82.802 13.456 83.314 13.456C84.274 13.456 85.1487 13.5947 85.938 13.872C86.7273 14.1493 87.3993 14.5547 87.954 15.088C88.53 15.6213 88.9673 16.2827 89.266 17.072C89.586 17.84 89.746 18.7253 89.746 19.728V31.12C89.746 31.376 89.6927 31.5467 89.586 31.632C89.5007 31.7173 89.3407 31.76 89.106 31.76H86.194ZM108.697 23.408C108.675 23.664 108.611 23.8667 108.505 24.016C108.419 24.144 108.249 24.208 107.993 24.208H97.9765C98.1258 25.6373 98.5738 26.6933 99.3205 27.376C100.089 28.0587 100.995 28.4213 102.041 28.464C103.022 28.5067 103.875 28.4107 104.601 28.176C105.347 27.9413 106.062 27.6107 106.745 27.184C107.043 26.992 107.246 26.9387 107.353 27.024C107.459 27.1093 107.513 27.3333 107.513 27.696V30.096C107.513 30.3307 107.481 30.4907 107.417 30.576C107.374 30.6613 107.257 30.7787 107.065 30.928C106.446 31.3547 105.657 31.6747 104.697 31.888C103.758 32.1013 102.83 32.208 101.913 32.208C99.3525 32.208 97.3258 31.3867 95.8325 29.744C94.3605 28.1013 93.6245 25.7653 93.6245 22.736C93.6245 21.6053 93.7738 20.4747 94.0725 19.344C94.3712 18.2133 94.8512 17.2 95.5125 16.304C96.1738 15.3867 96.9845 14.6507 97.9445 14.096C98.9045 13.52 100.046 13.232 101.369 13.232C102.713 13.232 103.843 13.4773 104.761 13.968C105.699 14.4587 106.457 15.12 107.033 15.952C107.63 16.784 108.057 17.7547 108.312 18.864C108.569 19.952 108.697 21.1147 108.697 22.352V23.408ZM101.465 16.944C101.017 16.944 100.601 17.0507 100.217 17.264C99.8325 17.4773 99.4912 17.7547 99.1925 18.096C98.9152 18.4373 98.6698 18.832 98.4565 19.28C98.2432 19.728 98.1045 20.1973 98.0405 20.688H104.537C104.537 20.2613 104.462 19.824 104.313 19.376C104.185 18.928 103.993 18.5333 103.737 18.192C103.502 17.8293 103.193 17.5307 102.809 17.296C102.425 17.0613 101.977 16.944 101.465 16.944ZM157.038 29.264C156.249 30.2667 155.299 31.0133 154.19 31.504C153.102 32.016 151.886 32.272 150.542 32.272C149.134 32.272 147.897 32.016 146.83 31.504C145.785 30.992 144.899 30.3093 144.174 29.456C143.47 28.5813 142.937 27.568 142.574 26.416C142.211 25.264 142.03 24.048 142.03 22.768C142.03 21.488 142.201 20.272 142.542 19.12C142.905 17.968 143.438 16.9653 144.142 16.112C144.867 15.2373 145.763 14.5547 146.83 14.064C147.897 13.552 149.134 13.296 150.542 13.296C151.95 13.296 153.187 13.552 154.254 14.064C155.321 14.576 156.206 15.2693 156.91 16.144C157.635 16.9973 158.179 18 158.542 19.152C158.905 20.2827 159.086 21.488 159.086 22.768C159.086 24.0267 158.905 25.2213 158.542 26.352C158.201 27.4613 157.699 28.432 157.038 29.264ZM150.542 17.04C149.838 17.04 149.219 17.2107 148.686 17.552C148.153 17.872 147.705 18.2987 147.342 18.832C147.001 19.3653 146.734 19.9733 146.542 20.656C146.371 21.3387 146.286 22.0427 146.286 22.768C146.286 23.4933 146.371 24.1973 146.542 24.88C146.734 25.5627 147.001 26.1813 147.342 26.736C147.705 27.2693 148.153 27.7067 148.686 28.048C149.219 28.368 149.838 28.528 150.542 28.528C151.267 28.528 151.897 28.368 152.43 28.048C152.963 27.7067 153.401 27.2693 153.742 26.736C154.105 26.1813 154.371 25.5627 154.542 24.88C154.713 24.1973 154.798 23.4933 154.798 22.768C154.798 22.064 154.713 21.3707 154.542 20.688C154.371 20.0053 154.105 19.3973 153.742 18.864C153.401 18.3093 152.963 17.872 152.43 17.552C151.897 17.2107 151.267 17.04 150.542 17.04ZM170.012 31.376C169.97 31.5467 169.916 31.6533 169.852 31.696C169.788 31.7387 169.639 31.76 169.404 31.76H166.492C166.322 31.76 166.194 31.7387 166.108 31.696C166.023 31.6533 165.959 31.5467 165.916 31.376L160.284 14.416C160.178 14.096 160.156 13.8933 160.22 13.808C160.306 13.7227 160.53 13.68 160.892 13.68H163.868C164.082 13.68 164.22 13.7013 164.284 13.744C164.37 13.7867 164.434 13.8933 164.476 14.064L167.996 25.584L171.516 14.064C171.559 13.8933 171.612 13.7867 171.676 13.744C171.74 13.7013 171.89 13.68 172.124 13.68H175.068C175.431 13.68 175.644 13.7227 175.708 13.808C175.794 13.8933 175.783 14.096 175.676 14.416L170.012 31.376ZM179.688 11.088C178.984 11.088 178.398 10.8427 177.928 10.352C177.459 9.86133 177.224 9.264 177.224 8.56C177.224 7.856 177.448 7.25867 177.896 6.768C178.366 6.256 178.963 6 179.688 6C180.414 6 181.011 6.256 181.48 6.768C181.95 7.25867 182.184 7.856 182.184 8.56C182.184 9.264 181.95 9.86133 181.48 10.352C181.011 10.8427 180.414 11.088 179.688 11.088ZM178.056 31.76C177.864 31.76 177.726 31.7173 177.64 31.632C177.576 31.5467 177.544 31.376 177.544 31.12V14.448C177.544 14.192 177.576 14.0213 177.64 13.936C177.704 13.8507 177.843 13.808 178.056 13.808H181.224C181.438 13.808 181.576 13.8507 181.64 13.936C181.726 14.0213 181.768 14.192 181.768 14.448V31.12C181.768 31.376 181.726 31.5467 181.64 31.632C181.576 31.7173 181.438 31.76 181.224 31.76H178.056ZM199.79 23.408C199.769 23.664 199.705 23.8667 199.598 24.016C199.513 24.144 199.342 24.208 199.086 24.208H189.07C189.22 25.6373 189.668 26.6933 190.414 27.376C191.182 28.0587 192.089 28.4213 193.134 28.464C194.116 28.5067 194.969 28.4107 195.694 28.176C196.441 27.9413 197.156 27.6107 197.838 27.184C198.137 26.992 198.34 26.9387 198.446 27.024C198.553 27.1093 198.606 27.3333 198.606 27.696V30.096C198.606 30.3307 198.574 30.4907 198.51 30.576C198.468 30.6613 198.35 30.7787 198.158 30.928C197.54 31.3547 196.75 31.6747 195.79 31.888C194.852 32.1013 193.924 32.208 193.006 32.208C190.446 32.208 188.42 31.3867 186.926 29.744C185.454 28.1013 184.718 25.7653 184.718 22.736C184.718 21.6053 184.868 20.4747 185.166 19.344C185.465 18.2133 185.945 17.2 186.606 16.304C187.268 15.3867 188.078 14.6507 189.038 14.096C189.998 13.52 191.14 13.232 192.462 13.232C193.806 13.232 194.937 13.4773 195.854 13.968C196.793 14.4587 197.55 15.12 198.126 15.952C198.724 16.784 199.15 17.7547 199.406 18.864C199.662 19.952 199.79 21.1147 199.79 22.352V23.408ZM192.558 16.944C192.11 16.944 191.694 17.0507 191.31 17.264C190.926 17.4773 190.585 17.7547 190.286 18.096C190.009 18.4373 189.764 18.832 189.55 19.28C189.337 19.728 189.198 20.1973 189.134 20.688H195.63C195.63 20.2613 195.556 19.824 195.406 19.376C195.278 18.928 195.086 18.5333 194.83 18.192C194.596 17.8293 194.286 17.5307 193.902 17.296C193.518 17.0613 193.07 16.944 192.558 16.944Z" fill="white"/>
<path d="M134.134 31.76C133.857 31.76 133.686 31.7173 133.622 31.632C133.558 31.568 133.526 31.408 133.526 31.152V15.088L127.286 31.056C127.179 31.2907 127.083 31.44 126.998 31.504C126.913 31.568 126.753 31.6 126.518 31.6H123.734C123.499 31.6 123.329 31.568 123.222 31.504C123.137 31.44 123.051 31.2907 122.966 31.056L116.726 15.088V31.152C116.726 31.408 116.694 31.568 116.63 31.632C116.566 31.7173 116.395 31.76 116.118 31.76H112.982C112.705 31.76 112.534 31.7173 112.47 31.632C112.406 31.568 112.374 31.408 112.374 31.152V8.08C112.374 7.632 112.417 7.36533 112.502 7.28C112.609 7.17333 112.875 7.12 113.302 7.12H116.886C117.078 7.12 117.227 7.152 117.334 7.216C117.441 7.28 117.537 7.41866 117.622 7.632L125.11 26.224L132.63 7.632C132.758 7.29067 133.025 7.12 133.43 7.12H136.918C137.366 7.12 137.633 7.17333 137.718 7.28C137.825 7.36533 137.878 7.632 137.878 8.08V31.152C137.878 31.408 137.835 31.568 137.75 31.632C137.686 31.7173 137.526 31.76 137.27 31.76H134.134Z" fill="#E3FF00"/>
</svg>
