<svg width="39" height="38" viewBox="0 0 39 38" fill="none" xmlns="http://www.w3.org/2000/svg">
<path d="M28.028 24.518C27.629 24.1217 27.0895 23.8994 26.5272 23.8994H25.9243C25.763 23.8994 25.608 23.8372 25.4915 23.7258V23.7258C25.2495 23.4946 25.2333 23.115 25.442 22.8535C27.422 20.3727 28.5037 17.2969 28.5013 14.1224C28.5013 11.3292 27.6655 8.59881 26.0996 6.2764C24.5337 3.95399 22.3081 2.14389 19.7041 1.07501C17.1002 0.006119 14.2348 -0.273551 11.4705 0.271363C8.70613 0.816278 6.16691 2.1613 4.17392 4.13635C2.18093 6.11139 0.823692 8.62776 0.273828 11.3672C-0.276035 14.1067 0.00617458 16.9462 1.08477 19.5267C2.16337 22.1073 3.98991 24.3129 6.33341 25.8647C8.67692 27.4165 11.4321 28.2447 14.2506 28.2447C17.5684 28.2447 20.6343 27.1122 23.0661 25.2081C23.3284 25.0027 23.705 25.0191 23.9373 25.2578V25.2578C24.0522 25.3759 24.1165 25.5341 24.1165 25.6989V26.2885C24.1165 26.8451 24.3392 27.3786 24.735 27.7701L33.4583 36.3976C34.3557 37.2852 35.8005 37.2845 36.6971 36.396V36.396C37.6051 35.4961 37.6059 34.0286 36.6987 33.1278L28.028 24.518ZM14.2506 23.8994C8.79155 23.8994 4.38482 19.5323 4.38482 14.1224C4.38482 8.71241 8.79155 4.34535 14.2506 4.34535C19.7097 4.34535 24.1165 8.71241 24.1165 14.1224C24.1165 19.5323 19.7097 23.8994 14.2506 23.8994Z" fill="#3B383E"/>
</svg>
