<svg width="48" height="48" viewBox="0 0 48 48" fill="none" xmlns="http://www.w3.org/2000/svg">
<rect width="48" height="48" rx="24" fill="#252328"/>
<path d="M28.21 28.4587H19.79C19.4576 28.4592 19.1318 28.3655 18.8505 28.1885C18.5691 28.0116 18.3435 27.7585 18.2 27.4587C18.032 27.1029 17.9673 26.7072 18.0132 26.3164C18.0592 25.9257 18.214 25.5557 18.46 25.2487L22.67 20.1487C22.8352 19.9581 23.0395 19.8052 23.269 19.7004C23.4984 19.5956 23.7477 19.5414 24 19.5414C24.2523 19.5414 24.5016 19.5956 24.7311 19.7004C24.9605 19.8052 25.1648 19.9581 25.33 20.1487L29.54 25.2487C29.786 25.5557 29.9408 25.9257 29.9868 26.3164C30.0328 26.7072 29.968 27.1029 29.8 27.4587C29.6565 27.7585 29.4309 28.0116 29.1496 28.1885C28.8682 28.3655 28.5424 28.4592 28.21 28.4587Z" fill="#E3FF00"/>
</svg>
