<svg width="30" height="30" viewBox="0 0 30 30" fill="none" xmlns="http://www.w3.org/2000/svg">
<path d="M15 0C13.0302 0 11.0796 0.390764 9.25975 1.14998C7.43986 1.9092 5.78628 3.022 4.3934 4.42484C1.58035 7.25802 0 11.1006 0 15.1074C0 21.7848 4.305 27.4501 10.26 29.4594C11.01 29.5802 11.25 29.1119 11.25 28.704V26.1508C7.095 27.0573 6.21 24.1265 6.21 24.1265C5.52 22.374 4.545 21.9057 4.545 21.9057C3.18 20.969 4.65 20.9992 4.65 20.9992C6.15 21.105 6.945 22.5553 6.945 22.5553C8.25 24.8516 10.455 24.1718 11.31 23.8092C11.445 22.8272 11.835 22.1625 12.255 21.7848C8.925 21.4071 5.43 20.1079 5.43 14.352C5.43 12.6751 6 11.3305 6.975 10.2579C6.825 9.88021 6.3 8.30905 7.125 6.26956C7.125 6.26956 8.385 5.86166 11.25 7.81051C12.435 7.47814 13.725 7.31196 15 7.31196C16.275 7.31196 17.565 7.47814 18.75 7.81051C21.615 5.86166 22.875 6.26956 22.875 6.26956C23.7 8.30905 23.175 9.88021 23.025 10.2579C24 11.3305 24.57 12.6751 24.57 14.352C24.57 20.123 21.06 21.392 17.715 21.7697C18.255 22.238 18.75 23.1596 18.75 24.5646V28.704C18.75 29.1119 18.99 29.5953 19.755 29.4594C25.71 27.435 30 21.7848 30 15.1074C30 13.1234 29.612 11.1589 28.8582 9.32602C28.1044 7.49311 26.9995 5.82769 25.6066 4.42484C24.2137 3.022 22.5601 1.9092 20.7403 1.14998C18.9204 0.390764 16.9698 0 15 0Z" fill="#FAFAFA"/>
</svg>
