<svg width="16" height="16" viewBox="0 0 16 16" fill="none" xmlns="http://www.w3.org/2000/svg">
<path d="M12.55 12.55C14.9651 10.1353 15.2233 7.53159 14.5641 5.03796C14.4618 4.65178 14.5245 4.24266 14.6936 3.88098C15.1269 2.95151 15.1245 2.05898 14.5326 1.46707C13.9407 0.875168 13.0482 0.872835 12.1187 1.30646C11.757 1.47524 11.3479 1.53785 10.9617 1.43557C8.46811 0.776388 5.86481 1.03462 3.44974 3.44969C1.03467 5.86476 0.776438 8.46845 1.43601 10.9625C1.53829 11.3483 1.47568 11.7574 1.30651 12.1194C0.873274 13.0485 0.875218 13.9411 1.46751 14.533C2.05981 15.1249 2.95195 15.1272 3.88103 14.694C4.24309 14.5248 4.65222 14.4622 5.03801 14.5645C7.53203 15.224 10.1357 14.9654 12.5508 12.5507" fill="#E3FF00"/>
<path d="M12.55 12.55C14.9651 10.1353 15.2233 7.53159 14.5641 5.03796C14.4618 4.65178 14.5245 4.24266 14.6936 3.88098C15.1269 2.95151 15.1245 2.05898 14.5326 1.46707C13.9407 0.875168 13.0482 0.872835 12.1187 1.30646C11.757 1.47524 11.3479 1.53785 10.9617 1.43557C8.46811 0.776388 5.86481 1.03462 3.44974 3.44969C1.03467 5.86476 0.776438 8.46845 1.43601 10.9625C1.53829 11.3483 1.47568 11.7574 1.30651 12.1194C0.873274 13.0485 0.875218 13.9411 1.46751 14.533C2.05981 15.1249 2.95195 15.1272 3.88103 14.694C4.24309 14.5248 4.65222 14.4622 5.03801 14.5645C7.53203 15.224 10.1357 14.9654 12.5508 12.5507" stroke="#E3FF00" stroke-linecap="round" stroke-linejoin="round"/>
<ellipse cx="12.278" cy="6.05539" rx="0.777801" ry="0.7778" fill="#0C0B0E"/>
<ellipse cx="9.94467" cy="7.61105" rx="0.777801" ry="0.7778" fill="#0C0B0E"/>
<ellipse cx="12.278" cy="8.7778" rx="0.777801" ry="0.7778" fill="#0C0B0E"/>
</svg>
